<svg width="156" height="67" viewBox="0 0 156 67" fill="none" xmlns="http://www.w3.org/2000/svg">
<g filter="url(#filter0_d_1_52)">
<rect x="4" y="4" width="140" height="51" rx="25.5" fill="#F25822"/>
<path d="M42.4716 26.5625C42.4186 26.0663 42.1951 25.6799 41.8011 25.4034C41.411 25.1269 40.9034 24.9886 40.2784 24.9886C39.839 24.9886 39.4621 25.0549 39.1477 25.1875C38.8333 25.3201 38.5928 25.5 38.4261 25.7273C38.2595 25.9545 38.1742 26.214 38.1705 26.5057C38.1705 26.7481 38.2254 26.9583 38.3352 27.1364C38.4489 27.3144 38.6023 27.4659 38.7955 27.5909C38.9886 27.7121 39.2027 27.8144 39.4375 27.8977C39.6723 27.9811 39.9091 28.0511 40.1477 28.108L41.2386 28.3807C41.678 28.483 42.1004 28.6212 42.5057 28.7955C42.9148 28.9697 43.2803 29.1894 43.6023 29.4545C43.928 29.7197 44.1856 30.0398 44.375 30.4148C44.5644 30.7898 44.6591 31.2292 44.6591 31.733C44.6591 32.4148 44.4848 33.0152 44.1364 33.5341C43.7879 34.0492 43.2841 34.4527 42.625 34.7443C41.9697 35.0322 41.1761 35.1761 40.2443 35.1761C39.339 35.1761 38.553 35.036 37.8864 34.7557C37.2235 34.4754 36.7045 34.0663 36.3295 33.5284C35.9583 32.9905 35.7576 32.3352 35.7273 31.5625H37.8011C37.8314 31.9678 37.9564 32.3049 38.1761 32.5739C38.3958 32.8428 38.6818 33.0436 39.0341 33.1761C39.3902 33.3087 39.7879 33.375 40.2273 33.375C40.6856 33.375 41.0871 33.3068 41.4318 33.1705C41.7803 33.0303 42.053 32.8371 42.25 32.5909C42.447 32.3409 42.5473 32.0492 42.5511 31.7159C42.5473 31.4129 42.4583 31.1629 42.2841 30.9659C42.1098 30.7652 41.8655 30.5985 41.5511 30.4659C41.2405 30.3295 40.8769 30.2083 40.4602 30.1023L39.1364 29.7614C38.178 29.5152 37.4205 29.142 36.8636 28.642C36.3106 28.1383 36.0341 27.4697 36.0341 26.6364C36.0341 25.9508 36.2197 25.3504 36.5909 24.8352C36.9659 24.3201 37.4754 23.9205 38.1193 23.6364C38.7633 23.3485 39.4924 23.2045 40.3068 23.2045C41.1326 23.2045 41.8561 23.3485 42.4773 23.6364C43.1023 23.9205 43.5928 24.3163 43.9489 24.8239C44.3049 25.3277 44.4886 25.9072 44.5 26.5625H42.4716ZM50.8054 26.2727V27.8636H45.7884V26.2727H50.8054ZM47.027 24.1818H49.0838V32.375C49.0838 32.6515 49.1255 32.8636 49.2088 33.0114C49.2959 33.1553 49.4096 33.2538 49.5497 33.3068C49.6899 33.3598 49.8452 33.3864 50.0156 33.3864C50.1444 33.3864 50.2618 33.3769 50.3679 33.358C50.4777 33.339 50.5611 33.322 50.6179 33.3068L50.9645 34.9148C50.8546 34.9527 50.6974 34.9943 50.4929 35.0398C50.2921 35.0852 50.0459 35.1117 49.7543 35.1193C49.2391 35.1345 48.7751 35.0568 48.3622 34.8864C47.9493 34.7121 47.6217 34.4432 47.3793 34.0795C47.1406 33.7159 47.0232 33.2614 47.027 32.7159V24.1818ZM55.0369 35.1761C54.4839 35.1761 53.9858 35.0777 53.5426 34.8807C53.1032 34.6799 52.7547 34.3845 52.4972 33.9943C52.2434 33.6042 52.1165 33.1231 52.1165 32.5511C52.1165 32.0587 52.2074 31.6515 52.3892 31.3295C52.571 31.0076 52.8191 30.75 53.1335 30.5568C53.4479 30.3636 53.8021 30.2178 54.196 30.1193C54.5938 30.017 55.0047 29.9432 55.429 29.8977C55.9403 29.8447 56.3551 29.7973 56.6733 29.7557C56.9915 29.7102 57.2225 29.642 57.3665 29.5511C57.5142 29.4564 57.5881 29.3106 57.5881 29.1136V29.0795C57.5881 28.6515 57.4612 28.3201 57.2074 28.0852C56.9536 27.8504 56.5881 27.733 56.1108 27.733C55.607 27.733 55.2074 27.8428 54.9119 28.0625C54.6203 28.2822 54.4233 28.5417 54.321 28.8409L52.4006 28.5682C52.5521 28.0379 52.8021 27.5947 53.1506 27.2386C53.4991 26.8788 53.9252 26.6098 54.429 26.4318C54.9328 26.25 55.4896 26.1591 56.0994 26.1591C56.5199 26.1591 56.9384 26.2083 57.3551 26.3068C57.7718 26.4053 58.1525 26.5682 58.4972 26.7955C58.8419 27.0189 59.1184 27.3239 59.3267 27.7102C59.5388 28.0966 59.6449 28.5795 59.6449 29.1591V35H57.6676V33.8011H57.5994C57.4744 34.0436 57.2983 34.2708 57.071 34.483C56.8475 34.6913 56.5653 34.8598 56.2244 34.9886C55.8873 35.1136 55.4915 35.1761 55.0369 35.1761ZM55.571 33.6648C55.9839 33.6648 56.3419 33.5833 56.6449 33.4205C56.9479 33.2538 57.1809 33.0341 57.3438 32.7614C57.5104 32.4886 57.5938 32.1913 57.5938 31.8693V30.8409C57.5294 30.8939 57.4195 30.9432 57.2642 30.9886C57.1127 31.0341 56.9422 31.0739 56.7528 31.108C56.5634 31.142 56.3759 31.1723 56.1903 31.1989C56.0047 31.2254 55.8438 31.2481 55.7074 31.267C55.4006 31.3087 55.1259 31.3769 54.8835 31.4716C54.6411 31.5663 54.4498 31.6989 54.3097 31.8693C54.1695 32.036 54.0994 32.2519 54.0994 32.517C54.0994 32.8958 54.2377 33.1818 54.5142 33.375C54.7907 33.5682 55.143 33.6648 55.571 33.6648ZM61.7131 35V26.2727H63.7074V27.7273H63.7983C63.9574 27.2235 64.2301 26.8352 64.6165 26.5625C65.0066 26.286 65.4517 26.1477 65.9517 26.1477C66.0653 26.1477 66.1922 26.1534 66.3324 26.1648C66.4763 26.1723 66.5956 26.1856 66.6903 26.2045V28.0966C66.6032 28.0663 66.465 28.0398 66.2756 28.017C66.09 27.9905 65.91 27.9773 65.7358 27.9773C65.3608 27.9773 65.0237 28.0587 64.7244 28.2216C64.429 28.3807 64.196 28.6023 64.0256 28.8864C63.8551 29.1705 63.7699 29.4981 63.7699 29.8693V35H61.7131ZM72.8835 26.2727V27.8636H67.8665V26.2727H72.8835ZM69.1051 24.1818H71.1619V32.375C71.1619 32.6515 71.2036 32.8636 71.2869 33.0114C71.3741 33.1553 71.4877 33.2538 71.6278 33.3068C71.768 33.3598 71.9233 33.3864 72.0938 33.3864C72.2225 33.3864 72.34 33.3769 72.446 33.358C72.5559 33.339 72.6392 33.322 72.696 33.3068L73.0426 34.9148C72.9328 34.9527 72.7756 34.9943 72.571 35.0398C72.3703 35.0852 72.1241 35.1117 71.8324 35.1193C71.3172 35.1345 70.8532 35.0568 70.4403 34.8864C70.0275 34.7121 69.6998 34.4432 69.4574 34.0795C69.2188 33.7159 69.1013 33.2614 69.1051 32.7159V24.1818ZM88.2259 23.3636V35H86.3509L80.8679 27.0739H80.7713V35H78.6634V23.3636H80.5497L86.027 31.2955H86.1293V23.3636H88.2259ZM94.2386 35.1705C93.3864 35.1705 92.6477 34.983 92.0227 34.608C91.3977 34.233 90.9129 33.7083 90.5682 33.0341C90.2273 32.3598 90.0568 31.572 90.0568 30.6705C90.0568 29.7689 90.2273 28.9792 90.5682 28.3011C90.9129 27.6231 91.3977 27.0966 92.0227 26.7216C92.6477 26.3466 93.3864 26.1591 94.2386 26.1591C95.0909 26.1591 95.8295 26.3466 96.4545 26.7216C97.0795 27.0966 97.5625 27.6231 97.9034 28.3011C98.2481 28.9792 98.4205 29.7689 98.4205 30.6705C98.4205 31.572 98.2481 32.3598 97.9034 33.0341C97.5625 33.7083 97.0795 34.233 96.4545 34.608C95.8295 34.983 95.0909 35.1705 94.2386 35.1705ZM94.25 33.5227C94.7121 33.5227 95.0985 33.3958 95.4091 33.142C95.7197 32.8845 95.9508 32.5398 96.1023 32.108C96.2576 31.6761 96.3352 31.1951 96.3352 30.6648C96.3352 30.1307 96.2576 29.6477 96.1023 29.2159C95.9508 28.7803 95.7197 28.4337 95.4091 28.1761C95.0985 27.9186 94.7121 27.7898 94.25 27.7898C93.7765 27.7898 93.3826 27.9186 93.0682 28.1761C92.7576 28.4337 92.5246 28.7803 92.3693 29.2159C92.2178 29.6477 92.142 30.1307 92.142 30.6648C92.142 31.1951 92.2178 31.6761 92.3693 32.108C92.5246 32.5398 92.7576 32.8845 93.0682 33.142C93.3826 33.3958 93.7765 33.5227 94.25 33.5227ZM101.717 35L99.2514 26.2727H101.348L102.882 32.4091H102.962L104.53 26.2727H106.604L108.172 32.375H108.257L109.768 26.2727H111.871L109.399 35H107.257L105.621 29.1023H105.501L103.865 35H101.717Z" fill="white"/>
</g>
<defs>
<filter id="filter0_d_1_52" x="0" y="0" width="156" height="67" filterUnits="userSpaceOnUse" color-interpolation-filters="sRGB">
<feFlood flood-opacity="0" result="BackgroundImageFix"/>
<feColorMatrix in="SourceAlpha" type="matrix" values="0 0 0 0 0 0 0 0 0 0 0 0 0 0 0 0 0 0 127 0" result="hardAlpha"/>
<feOffset dx="4" dy="4"/>
<feGaussianBlur stdDeviation="4"/>
<feColorMatrix type="matrix" values="0 0 0 0 0.94902 0 0 0 0 0.345098 0 0 0 0 0.133333 0 0 0 0.2 0"/>
<feBlend mode="normal" in2="BackgroundImageFix" result="effect1_dropShadow_1_52"/>
<feBlend mode="normal" in="SourceGraphic" in2="effect1_dropShadow_1_52" result="shape"/>
</filter>
</defs>
</svg>
