<svg width="96" height="26" viewBox="0 0 96 26" fill="none" xmlns="http://www.w3.org/2000/svg">
<g filter="url(#filter0_d_2_21)">
<path d="M81.9539 12.408C82.3699 13.912 83.4979 14.664 85.3379 14.664C86.5219 14.664 87.4179 14.264 88.0259 13.464L90.5219 14.904C89.3379 16.616 87.5939 17.472 85.2899 17.472C83.3059 17.472 81.7139 16.872 80.5139 15.672C79.3139 14.472 78.7139 12.96 78.7139 11.136C78.7139 9.328 79.3059 7.824 80.4899 6.624C81.6739 5.408 83.1939 4.8 85.0499 4.8C86.8099 4.8 88.2579 5.408 89.3939 6.624C90.5459 7.84 91.1219 9.344 91.1219 11.136C91.1219 11.536 91.0819 11.96 91.0019 12.408H81.9539ZM81.9059 10.008H88.0259C87.8499 9.192 87.4819 8.584 86.9219 8.184C86.3779 7.784 85.7539 7.584 85.0499 7.584C84.2179 7.584 83.5299 7.8 82.9859 8.232C82.4419 8.648 82.0819 9.24 81.9059 10.008Z" fill="#F25822"/>
<path d="M74.9152 8.424C76.3872 9.272 77.1232 10.552 77.1232 12.264C77.1232 13.688 76.6192 14.856 75.6112 15.768C74.6032 16.68 73.3632 17.136 71.8912 17.136H64.7632V0.335999H71.3872C72.8272 0.335999 74.0352 0.783998 75.0112 1.68C76.0032 2.56 76.4992 3.688 76.4992 5.064C76.4992 6.456 75.9712 7.576 74.9152 8.424ZM71.3872 3.432H68.0752V7.128H71.3872C71.8992 7.128 72.3232 6.952 72.6592 6.6C73.0112 6.248 73.1872 5.808 73.1872 5.28C73.1872 4.752 73.0192 4.312 72.6832 3.96C72.3472 3.608 71.9152 3.432 71.3872 3.432ZM71.8912 14.04C72.4512 14.04 72.9152 13.856 73.2832 13.488C73.6512 13.104 73.8352 12.624 73.8352 12.048C73.8352 11.488 73.6512 11.024 73.2832 10.656C72.9152 10.272 72.4512 10.08 71.8912 10.08H68.0752V14.04H71.8912Z" fill="#F25822"/>
<path d="M59.6623 5.136H62.9503L59.1343 17.136H56.1823L53.9743 9.864L51.7663 17.136H48.8143L44.9983 5.136H48.2863L50.3263 12.504L52.5103 5.136H55.4383L57.6223 12.528L59.6623 5.136Z" fill="black"/>
<path d="M42.5931 15.648C41.3611 16.864 39.8571 17.472 38.0811 17.472C36.3051 17.472 34.8011 16.864 33.5691 15.648C32.3531 14.416 31.7451 12.912 31.7451 11.136C31.7451 9.36 32.3531 7.864 33.5691 6.648C34.8011 5.416 36.3051 4.8 38.0811 4.8C39.8571 4.8 41.3611 5.416 42.5931 6.648C43.8251 7.864 44.4411 9.36 44.4411 11.136C44.4411 12.912 43.8251 14.416 42.5931 15.648ZM35.7531 13.512C36.3771 14.136 37.1531 14.448 38.0811 14.448C39.0091 14.448 39.7851 14.136 40.4091 13.512C41.0331 12.888 41.3451 12.096 41.3451 11.136C41.3451 10.176 41.0331 9.384 40.4091 8.76C39.7851 8.136 39.0091 7.824 38.0811 7.824C37.1531 7.824 36.3771 8.136 35.7531 8.76C35.1451 9.384 34.8411 10.176 34.8411 11.136C34.8411 12.096 35.1451 12.888 35.7531 13.512Z" fill="black"/>
<path d="M27.3558 7.2C27.6438 6.432 28.1158 5.856 28.7718 5.472C29.4438 5.088 30.1878 4.896 31.0038 4.896V8.352C30.0598 8.24 29.2118 8.432 28.4598 8.928C27.7238 9.424 27.3558 10.248 27.3558 11.4V17.136H24.2598V5.136H27.3558V7.2Z" fill="black"/>
<path d="M22.048 8.112V9.408C22.048 11.808 21.28 13.752 19.744 15.24C18.208 16.728 16.224 17.472 13.792 17.472C11.2 17.472 9.04799 16.632 7.33599 14.952C5.63999 13.256 4.79199 11.192 4.79199 8.76C4.79199 6.312 5.63199 4.24 7.31199 2.544C9.00799 0.848 11.104 0 13.6 0C15.168 0 16.6 0.36 17.896 1.08C19.192 1.784 20.2 2.728 20.92 3.912L18.088 5.544C17.688 4.856 17.08 4.296 16.264 3.864C15.464 3.432 14.568 3.216 13.576 3.216C11.976 3.216 10.656 3.744 9.61599 4.8C8.59199 5.84 8.07999 7.16 8.07999 8.76C8.07999 10.344 8.59999 11.656 9.63999 12.696C10.696 13.72 12.088 14.232 13.816 14.232C15.096 14.232 16.152 13.952 16.984 13.392C17.832 12.816 18.408 12.032 18.712 11.04H13.624V8.112H22.048Z" fill="black"/>
</g>
<defs>
<filter id="filter0_d_2_21" x="0.791992" y="0" width="94.3298" height="25.472" filterUnits="userSpaceOnUse" color-interpolation-filters="sRGB">
<feFlood flood-opacity="0" result="BackgroundImageFix"/>
<feColorMatrix in="SourceAlpha" type="matrix" values="0 0 0 0 0 0 0 0 0 0 0 0 0 0 0 0 0 0 127 0" result="hardAlpha"/>
<feOffset dy="4"/>
<feGaussianBlur stdDeviation="2"/>
<feComposite in2="hardAlpha" operator="out"/>
<feColorMatrix type="matrix" values="0 0 0 0 0 0 0 0 0 0 0 0 0 0 0 0 0 0 0.25 0"/>
<feBlend mode="normal" in2="BackgroundImageFix" result="effect1_dropShadow_2_21"/>
<feBlend mode="normal" in="SourceGraphic" in2="effect1_dropShadow_2_21" result="shape"/>
</filter>
</defs>
</svg>
